<?xml version="1.0" encoding="UTF-8"?>
<!DOCTYPE svg PUBLIC "-//W3C//DTD SVG 1.1//EN" "http://www.w3.org/Graphics/SVG/1.1/DTD/svg11.dtd">
<!-- Creator: CorelDRAW X7 -->
<svg xmlns="http://www.w3.org/2000/svg" xml:space="preserve" width="4488px" height="6024px" version="1.1" style="shape-rendering:geometricPrecision; text-rendering:geometricPrecision; image-rendering:optimizeQuality; fill-rule:evenodd; clip-rule:evenodd"
viewBox="0 0 4488 6023"
 xmlns:xlink="http://www.w3.org/1999/xlink">
 <defs>
  <style type="text/css">
   <![CDATA[
    .str0 {stroke:black;stroke-width:59.0526}
    .fil0 {fill:#008DD2}
    .fil1 {fill:#FEFEFE}
    .fil2 {fill:#2B2A29;fill-rule:nonzero}
   ]]>
  </style>
 </defs>
 <g id="Слой_x0020_1">
  <metadata id="CorelCorpID_0Corel-Layer"/>
  <path class="fil0" d="M2266 5931l3 0c160,0 325,-76 433,-220l5 -7 2 -7c675,-1082 1104,-1735 1372,-2211 267,-471 380,-789 380,-1155 0,-120 -12,-240 -31,-372 -148,-1063 -1089,-1876 -2164,-1869 -1079,0 -2013,796 -2164,1869 -18,132 -28,252 -28,372 -2,366 111,684 380,1155 266,476 697,1129 1369,2211l5 7 5 7c106,144 271,220 431,220l2 0 0 0z"/>
  <circle class="fil1" cx="2297" cy="2289" r="1603"/>
  <g id="SVGRepo_bgCarrier">
  </g>
  <g id="SVGRepo_tracerCarrier">
  </g>
  <path class="fil2 str0" d="M2083 3258c0,53 -45,98 -97,98 -53,0 -94,-45 -94,-98l0 -1852c0,-57 41,-97 94,-97 20,0 40,4 56,16l1107 628c44,24 61,81 36,130 -12,16 -28,32 -48,40l0 0 -1054 450 0 685 0 0zm0 -1690l0 799 802 -345 -802 -454z"/>
 </g>
</svg>
