<?xml version="1.0" encoding="UTF-8"?><!DOCTYPE svg PUBLIC "-//W3C//DTD SVG 1.1//EN" "http://www.w3.org/Graphics/SVG/1.1/DTD/svg11.dtd"><!-- Creator: CorelDRAW X7 --><svg xmlns="http://www.w3.org/2000/svg" xmlns:xlink="http://www.w3.org/1999/xlink" xml:space="preserve" width="1240px" height="1240px" version="1.1" style="shape-rendering:geometricPrecision; text-rendering:geometricPrecision; image-rendering:optimizeQuality; fill-rule:evenodd; clip-rule:evenodd" viewBox="0 0 1240 1240">
 <defs>
  <style type="text/css">
   <![CDATA[
    .fil0 {fill:#2d396a}
   ]]>
  </style>
 </defs>
 <g id="Слой_x0020_1">
  <metadata id="CorelCorpID_0Corel-Layer"/>
  <g id="_2362584207440">
   <path class="fil0" d="M413 412l214 172 214 -172 -172 214 172 214 -214 -172 -214 172 172 -213 -172 -215zm36 36l143 179 -143 177 179 -143 177 143 -143 -178 143 -178 -178 143 -178 -143z"/>
   <polygon class="fil0" points="413,412 627,584 627,584 627,626 "/>
   <polygon class="fil0" points="413,840 585,627 585,626 627,626 "/>
   <polygon class="fil0" points="841,840 627,668 627,669 627,626 "/>
   <polygon class="fil0" points="841,412 669,626 669,626 627,626 "/>
   <path class="fil0" d="M627 147l47 432 433 47 -432 47 -48 433 -46 -432 -433 -48 432 -46 47 -433zm0 80l-40 361 -359 38 360 40 39 359 40 -360 359 -39 -360 -39 -39 -360z"/>
   <polygon class="fil0" points="627,147 674,579 674,579 627,626 "/>
   <polygon class="fil0" points="148,626 580,580 580,579 627,626 "/>
   <polygon class="fil0" points="627,1106 581,674 580,674 627,626 "/>
   <polygon class="fil0" points="1107,626 675,673 674,674 627,626 "/>
   <path class="fil0" d="M588 104l4 0c1,-1 2,-1 3,-1 1,0 2,0 2,0 1,-1 2,-1 3,-1 1,0 2,0 2,0 1,0 2,0 3,0 0,0 1,0 1,1 0,0 1,0 1,0 0,0 1,0 2,0 1,0 2,1 3,1l4 0 0 -5 -3 0c-1,0 -2,-1 -3,-1 -1,-1 -2,-2 -2,-3 -1,-1 -1,-2 -2,-4 0,-1 0,-2 0,-3 0,-1 0,-2 0,-3l0 -32c0,-1 0,-1 0,-2 0,-2 0,-3 0,-4 0,-1 0,-2 -1,-4 0,-1 0,-2 0,-3l1 0c1,2 2,3 3,4 1,2 2,3 3,4 1,2 3,3 4,5 2,2 4,5 7,7 2,3 5,6 9,10 2,3 5,6 7,8 2,2 4,4 5,6 2,1 3,3 5,5 1,1 2,3 4,4 1,2 3,4 4,6 2,2 4,4 6,7l8 -2 0 -50c0,-1 0,-2 0,-3 1,-2 1,-3 1,-5 0,-1 0,-3 0,-5 0,-1 0,-3 0,-4 0,-1 0,-2 0,-3 0,-2 1,-3 1,-5 0,-1 1,-2 2,-3 1,-1 2,-1 4,-1l2 0 0 -5 -3 0c-1,0 -1,0 -2,1 -1,0 -2,0 -3,0 -1,0 -2,0 -3,0 -2,0 -3,0 -4,0 -1,0 -2,0 -3,0 -1,0 -2,0 -3,0 -1,0 -1,0 -2,0 -1,-1 -1,-1 -2,-1l-4 0 0 5 2 0c1,0 2,0 3,0 1,0 2,1 2,1 1,1 2,2 2,3 1,1 1,3 2,5 0,1 0,3 0,4 0,1 1,3 1,4 0,2 0,3 0,5 0,2 0,4 0,7l0 30 -1 0c-2,-3 -4,-6 -7,-10 -3,-3 -6,-6 -10,-10 -3,-4 -7,-8 -11,-12 -4,-4 -9,-9 -14,-15 -5,-6 -10,-12 -16,-19l-7 3c0,1 0,4 0,10 1,5 1,13 1,22l0 32c0,2 0,4 -1,5 0,2 0,3 -1,5 -1,1 -2,2 -3,3 -1,0 -2,1 -4,1l-2 0 0 5z"/>
   <path class="fil0" d="M3 596l3 0c0,0 1,0 2,0 0,1 1,1 2,2 1,0 2,1 2,3 1,1 2,3 3,5l14 31c2,5 4,9 6,14 1,4 3,9 4,13 2,5 3,9 4,13l8 -2 15 -41 0 0 16 43 7 -2 2 -8 19 -52c1,-4 2,-7 3,-9 1,-3 3,-4 4,-6 1,-1 2,-2 2,-3 1,0 2,0 3,-1 1,0 1,0 2,0l2 0 0 -4 -2 0c-1,0 -2,0 -3,0 -1,0 -1,0 -1,0 -1,0 -1,0 -2,0 0,0 -1,0 -2,1 -1,0 -3,0 -5,0 0,0 -1,0 -2,0 -1,-1 -2,-1 -3,-1 0,0 -1,0 -2,0 -1,0 -2,0 -3,0l-3 0 0 4 3 0c1,0 2,1 3,2 1,0 1,2 2,4 0,1 -1,4 -2,6l-17 50 -1 0 -14 -36 5 -14c1,-3 3,-5 4,-6 1,-2 2,-3 3,-4 0,-1 1,-1 2,-2 1,0 2,0 3,0l1 0 0 -4 -14 0 -7 24 -1 0 -8 -24 -14 0 0 4c1,0 2,0 3,1 0,1 1,1 2,2 0,1 1,3 1,4l10 25 -11 30 0 0c-1,-2 -1,-3 -1,-4 -1,-2 -1,-4 -2,-6 -1,-2 -2,-5 -3,-8l-13 -32c0,0 0,-1 -1,-2 0,-2 0,-3 -1,-4 0,-1 0,-2 0,-3 1,-1 1,-1 2,-2 1,-1 2,-1 4,-1l1 0 0 -4 -1 0c-1,0 -2,0 -4,0 -1,0 -2,0 -4,0 -1,1 -3,1 -5,1 -2,0 -4,0 -6,-1 -2,0 -5,0 -7,0 -1,0 -1,0 -2,0 -1,0 -1,0 -2,0l-3 0 0 4z"/>
   <path class="fil0" d="M606 1202c0,2 0,4 0,6 0,2 0,4 1,6 0,1 0,3 0,5 1,1 2,2 3,4 1,1 2,1 3,2 2,1 3,1 5,2 2,0 3,0 5,0 2,1 3,1 5,1 4,0 8,-1 12,-2 4,-2 7,-4 9,-6 3,-2 5,-5 7,-8 1,-3 2,-6 2,-10 0,-2 -1,-4 -1,-6 -1,-2 -2,-4 -4,-6 -1,-2 -4,-4 -6,-7 -3,-2 -6,-4 -9,-7 -2,-1 -4,-3 -6,-4 -2,-2 -4,-3 -6,-5 -1,-1 -3,-3 -4,-5 0,-1 -1,-3 -1,-5 0,-2 0,-3 1,-4 0,-1 1,-3 2,-4 1,-1 3,-1 4,-2 2,-1 4,-1 6,-1 2,0 4,1 6,1 1,1 3,2 4,3 1,1 2,3 3,4 0,2 1,3 1,5 1,1 1,3 1,4l5 0c-1,-1 -1,-3 -1,-4 0,-1 0,-3 0,-4 0,-1 0,-3 0,-4l0 -8c-2,0 -3,0 -4,0 -2,0 -3,-1 -5,-1 -2,0 -3,0 -5,0 -1,0 -2,-1 -3,-1 -1,0 -3,0 -4,0 -5,0 -9,1 -13,3 -3,1 -6,3 -8,6 -2,3 -3,7 -3,11 0,3 0,6 1,8 1,3 3,5 4,7 2,2 4,4 6,5 2,2 5,4 7,6 3,2 5,4 8,6 2,1 3,3 5,4 1,2 2,4 3,6 1,2 2,4 2,6 0,2 0,3 -1,5 0,1 -1,3 -2,4 -2,1 -3,2 -5,3 -1,1 -3,1 -6,1 -3,0 -5,-1 -7,-2 -3,-1 -5,-2 -6,-4 -2,-2 -3,-4 -4,-6 -1,-2 -2,-5 -2,-8l-5 0z"/>
   <path class="fil0" d="M1161 589l0 4 2 0c1,0 3,1 3,2 1,0 2,2 3,3 0,1 0,3 1,5 0,1 0,3 0,5 0,1 0,3 0,4l0 39c0,1 0,2 0,4 0,1 0,2 0,4 -1,1 -1,3 -1,4 -1,1 -2,2 -2,3 -1,1 -2,1 -4,1l-2 0 0 5 4 0c1,0 2,0 3,0 1,-1 2,-1 3,-1 0,0 1,0 1,0 1,0 1,0 2,0 1,0 1,0 2,0 0,0 1,0 2,0 1,0 2,0 3,0 2,0 3,0 4,0 1,0 2,1 3,1 1,0 3,0 4,0 2,0 3,0 5,0 1,0 3,0 4,1 1,0 2,0 3,0 1,0 2,0 3,0 1,0 2,0 4,0 1,0 2,-1 3,-1 1,0 2,-1 3,-2 0,-1 1,-2 2,-3 0,-2 1,-3 1,-5 0,-2 1,-3 1,-5 0,-1 0,-3 1,-4l-5 0c-1,3 -2,5 -3,7 -1,2 -2,3 -3,4 -2,1 -3,2 -4,2 -1,1 -3,1 -4,1 -1,0 -3,0 -4,0 -2,0 -4,0 -5,0 -1,0 -2,0 -3,-1 -1,0 -2,-1 -3,-2 -1,-1 -1,-3 -2,-5 0,-2 0,-4 0,-8l0 -20 11 0c3,0 4,0 5,1 2,1 2,1 3,2 0,1 1,2 1,3 0,1 0,2 0,2 0,1 0,1 0,2 0,0 0,1 0,1l4 0 0 -8c0,-2 0,-3 1,-5 0,-1 0,-3 0,-5 0,-1 1,-3 1,-4 0,-2 0,-3 0,-4l-4 0 -1 6c0,1 -1,2 -2,2 0,1 -1,1 -2,1 -1,1 -3,1 -4,1 -1,0 -2,0 -3,0l-10 0 0 -31 14 0c0,0 1,0 2,0 1,0 2,1 3,1 1,0 2,1 2,2 1,1 1,2 1,4 0,1 0,1 0,2 0,0 0,1 0,2 0,0 0,1 0,2l4 0c1,-2 1,-4 2,-5 0,-2 0,-3 1,-4 0,-1 0,-2 1,-2 0,-1 0,-2 0,-4 1,-1 1,-2 1,-4 -3,0 -5,0 -7,0 -2,0 -4,0 -5,0 -2,0 -3,0 -5,0 -2,1 -4,1 -6,1 -2,0 -4,0 -7,0 -2,0 -5,0 -7,0 -2,-1 -4,-1 -6,-1 -2,0 -3,0 -5,0 -1,0 -3,0 -4,0l-4 0z"/>
   <path class="fil0" d="M323 533c4,2 7,6 5,10 -1,4 -5,7 -9,6 -4,-2 -7,-6 -6,-10 1,-4 6,-7 10,-6z"/>
   <path class="fil0" d="M311 588c5,0 8,4 8,8 -1,5 -5,8 -9,7 -4,0 -8,-4 -7,-8 0,-5 4,-8 8,-7z"/>
   <path class="fil0" d="M310 643c4,0 8,3 8,7 0,4 -3,8 -7,9 -5,0 -8,-3 -9,-8 0,-4 3,-8 8,-8z"/>
   <path class="fil0" d="M317 698c5,-1 9,1 10,5 1,5 -1,9 -6,10 -4,1 -8,-1 -9,-6 -1,-4 1,-8 5,-9z"/>
   <path class="fil0" d="M335 750c3,-1 8,0 10,4 2,4 0,9 -4,11 -4,1 -9,0 -10,-4 -2,-4 0,-9 4,-11z"/>
   <path class="fil0" d="M361 799c3,-2 8,-1 11,2 2,4 1,9 -3,11 -3,3 -8,2 -10,-2 -3,-3 -2,-8 2,-11z"/>
   <path class="fil0" d="M395 843c3,-3 8,-3 11,0 3,3 3,8 0,11 -3,3 -8,3 -11,0 -3,-3 -3,-8 0,-11z"/>
   <path class="fil0" d="M436 880c2,-4 7,-5 11,-2 3,2 4,7 2,11 -3,3 -8,4 -11,2 -4,-3 -5,-8 -2,-11z"/>
   <path class="fil0" d="M483 909c2,-4 6,-6 10,-4 4,2 6,7 4,11 -2,4 -7,5 -10,4 -4,-2 -6,-7 -4,-11z"/>
   <path class="fil0" d="M534 930c1,-4 6,-7 10,-6 4,1 6,6 5,10 -1,4 -5,7 -9,5 -5,-1 -7,-5 -6,-9z"/>
   <path class="fil0" d="M588 941c1,-4 5,-7 9,-7 4,1 7,4 7,9 0,4 -4,7 -9,7 -4,-1 -7,-4 -7,-9z"/>
   <path class="fil0" d="M644 943c-1,-4 3,-8 7,-8 4,-1 8,3 8,7 1,4 -3,8 -7,8 -4,1 -8,-3 -8,-7z"/>
   <path class="fil0" d="M698 935c-1,-4 2,-8 6,-9 4,-1 9,1 10,5 1,5 -2,9 -6,10 -4,1 -8,-1 -10,-6z"/>
   <path class="fil0" d="M751 918c-2,-4 0,-8 4,-10 4,-2 9,0 10,4 2,4 0,8 -4,10 -3,2 -8,0 -10,-4z"/>
   <path class="fil0" d="M800 892c-3,-3 -2,-8 2,-11 3,-2 8,-1 11,2 2,4 1,9 -2,11 -4,3 -9,2 -11,-2z"/>
   <path class="fil0" d="M843 858c-3,-3 -3,-8 1,-11 3,-3 8,-3 11,0 3,3 3,8 0,11 -4,3 -8,3 -12,0z"/>
   <path class="fil0" d="M880 817c-3,-3 -4,-8 -1,-11 2,-4 7,-5 11,-2 3,3 4,7 1,11 -2,4 -7,4 -11,2z"/>
   <path class="fil0" d="M910 770c-4,-2 -6,-7 -4,-11 2,-4 7,-5 11,-3 3,2 5,6 3,10 -2,4 -6,6 -10,4z"/>
   <path class="fil0" d="M930 719c-4,-2 -6,-6 -5,-10 1,-4 5,-7 10,-6 4,2 6,6 5,10 -1,4 -5,7 -10,6z"/>
   <path class="fil0" d="M942 664c-4,0 -8,-4 -7,-8 0,-5 4,-8 8,-7 5,0 8,4 7,8 0,5 -4,8 -8,7z"/>
   <path class="fil0" d="M944 609c-5,0 -8,-3 -9,-7 0,-5 3,-8 8,-9 4,0 8,3 8,8 0,4 -3,8 -7,8z"/>
   <path class="fil0" d="M936 554c-4,1 -9,-1 -10,-5 -1,-5 2,-9 6,-10 4,-1 9,1 10,6 1,4 -2,8 -6,9z"/>
   <path class="fil0" d="M919 502c-4,1 -9,0 -11,-4 -1,-4 0,-9 4,-11 4,-2 9,0 11,4 2,4 0,9 -4,11z"/>
   <path class="fil0" d="M893 453c-4,2 -9,1 -11,-2 -3,-4 -2,-9 2,-11 3,-3 8,-2 11,2 2,3 1,8 -2,11z"/>
   <path class="fil0" d="M859 409c-3,3 -8,3 -11,0 -4,-3 -3,-8 0,-11 3,-3 8,-3 11,0 3,3 3,8 0,11z"/>
   <path class="fil0" d="M818 372c-3,4 -8,5 -11,2 -4,-2 -5,-7 -2,-11 2,-3 7,-4 11,-2 3,3 4,8 2,11z"/>
   <path class="fil0" d="M771 343c-2,4 -7,6 -11,4 -4,-2 -6,-7 -4,-11 2,-4 7,-5 11,-4 4,2 5,7 4,11z"/>
   <path class="fil0" d="M719 322c-1,4 -5,7 -9,6 -5,-1 -7,-6 -6,-10 1,-4 6,-7 10,-5 4,1 6,5 5,9z"/>
   <path class="fil0" d="M665 311c0,4 -4,7 -9,7 -4,-1 -7,-4 -7,-9 1,-4 5,-7 9,-7 4,1 7,4 7,9z"/>
   <path class="fil0" d="M610 309c0,4 -3,8 -7,8 -5,1 -9,-3 -9,-7 0,-4 3,-8 7,-8 5,-1 8,3 9,7z"/>
   <path class="fil0" d="M555 317c1,4 -2,8 -6,9 -4,1 -8,-1 -9,-5 -1,-5 1,-9 5,-10 5,-1 9,1 10,6z"/>
   <path class="fil0" d="M502 334c2,4 0,8 -4,10 -4,2 -8,0 -10,-4 -2,-4 0,-8 4,-10 4,-2 9,0 10,4z"/>
   <path class="fil0" d="M453 360c3,3 2,8 -2,11 -3,2 -8,1 -11,-2 -2,-4 -1,-9 3,-11 3,-3 8,-2 10,2z"/>
   <path class="fil0" d="M410 394c3,3 3,8 0,11 -3,3 -8,3 -11,0 -3,-3 -3,-8 0,-11 3,-3 8,-3 11,0z"/>
   <path class="fil0" d="M373 435c3,3 4,8 2,11 -3,4 -8,4 -11,2 -4,-3 -5,-7 -2,-11 2,-4 7,-4 11,-2z"/>
   <path class="fil0" d="M344 482c4,2 5,7 3,11 -2,4 -6,5 -10,3 -4,-2 -6,-6 -4,-10 2,-4 7,-6 11,-4z"/>
   <polygon class="fil0" points="498,460 453,378 514,448 "/>
   <polygon class="fil0" points="529,440 499,352 547,431 "/>
   <polygon class="fil0" points="563,426 549,334 582,420 "/>
   <polygon class="fil0" points="671,421 705,334 691,425 "/>
   <polygon class="fil0" points="706,432 755,352 725,439 "/>
   <polygon class="fil0" points="739,449 801,378 756,459 "/>
   <polygon class="fil0" points="793,498 875,453 806,513 "/>
   <polygon class="fil0" points="813,528 901,498 823,546 "/>
   <polygon class="fil0" points="827,562 919,548 834,581 "/>
   <polygon class="fil0" points="832,671 919,705 829,690 "/>
   <polygon class="fil0" points="821,706 901,754 814,724 "/>
   <polygon class="fil0" points="805,738 875,800 794,755 "/>
   <polygon class="fil0" points="756,792 801,874 740,805 "/>
   <polygon class="fil0" points="725,812 755,901 707,822 "/>
   <polygon class="fil0" points="691,826 705,919 672,833 "/>
   <polygon class="fil0" points="583,831 549,919 563,828 "/>
   <polygon class="fil0" points="548,821 499,901 529,813 "/>
   <polygon class="fil0" points="515,804 453,874 498,794 "/>
   <polygon class="fil0" points="461,755 379,800 448,739 "/>
   <polygon class="fil0" points="441,724 353,754 432,707 "/>
   <polygon class="fil0" points="427,690 335,705 421,671 "/>
   <polygon class="fil0" points="422,582 335,548 426,562 "/>
   <polygon class="fil0" points="433,547 353,498 440,528 "/>
   <polygon class="fil0" points="449,514 379,453 460,497 "/>
  </g>
 </g>
</svg>