<?xml version="1.0" encoding="UTF-8"?>
<!DOCTYPE svg PUBLIC "-//W3C//DTD SVG 1.1//EN" "http://www.w3.org/Graphics/SVG/1.1/DTD/svg11.dtd">
<!-- Creator: CorelDRAW X7 -->
<svg xmlns="http://www.w3.org/2000/svg" xml:space="preserve" width="4488px" height="6024px" version="1.1" style="shape-rendering:geometricPrecision; text-rendering:geometricPrecision; image-rendering:optimizeQuality; fill-rule:evenodd; clip-rule:evenodd"
viewBox="0 0 4488 6023"
 xmlns:xlink="http://www.w3.org/1999/xlink">
 <defs>
  <style type="text/css">
   <![CDATA[
    .fil0 {fill:#008DD2}
    .fil2 {fill:#240E2F}
    .fil1 {fill:#FEFEFE}
   ]]>
  </style>
 </defs>
 <g id="Слой_x0020_1">
  <metadata id="CorelCorpID_0Corel-Layer"/>
  <path class="fil0" d="M2266 5931l3 0c160,0 325,-76 433,-220l5 -7 2 -7c675,-1082 1104,-1735 1372,-2211 267,-471 380,-789 380,-1155 0,-120 -12,-240 -31,-372 -148,-1063 -1089,-1876 -2164,-1869 -1079,0 -2013,796 -2164,1869 -18,132 -28,252 -28,372 -2,366 111,684 380,1155 266,476 697,1129 1369,2211l5 7 5 7c106,144 271,220 431,220l2 0 0 0z"/>
  <circle class="fil1" cx="2297" cy="2289" r="1603"/>
  <g id="SVGRepo_bgCarrier">
  </g>
  <g id="SVGRepo_tracerCarrier">
  </g>
  <g id="SVGRepo_iconCarrier">
   <g>
    <path class="fil2" d="M2297 1435l91 0c-3,-22 2,-50 8,-76 7,-25 28,-33 28,-79 0,-45 -36,-82 -81,-82 -45,0 -82,37 -82,82 0,46 22,54 28,79 6,26 12,54 8,76z"/>
    <path class="fil2" d="M2388 3211l-91 0c4,22 -2,50 -8,75 -6,25 -28,33 -28,79 0,45 37,82 82,82 45,0 81,-37 81,-82 0,-46 -21,-54 -28,-79 -6,-25 -11,-53 -8,-75z"/>
    <path class="fil2" d="M2390 3178c15,0 27,-12 27,-27 0,-15 -12,-27 -27,-27l-95 0c-15,0 -27,12 -27,27 0,15 12,27 27,27l95 0z"/>
    <path class="fil2" d="M2295 1467c-15,0 -27,13 -27,28 0,14 12,27 27,27l95 0c15,0 27,-13 27,-27 0,-15 -12,-28 -27,-28l-95 0z"/>
    <path class="fil2" d="M1623 1679c23,14 46,30 59,48l65 -65c-18,-13 -34,-36 -48,-58 -13,-22 -3,-44 -36,-76 -32,-32 -83,-32 -115,0 -32,32 -32,83 0,115 32,33 53,23 75,36z"/>
    <path class="fil2" d="M3062 2966c-23,-13 -46,-29 -59,-48l-65 65c18,13 35,37 48,59 13,22 4,43 36,76 32,32 84,32 116,0 32,-32 32,-84 0,-116 -33,-32 -54,-23 -76,-36z"/>
    <path class="fil2" d="M2981 2856c-11,-11 -28,-11 -38,0l-67 67c-11,10 -11,27 0,38 10,10 27,10 38,0l67 -67c10,-10 10,-28 0,-38z"/>
    <path class="fil2" d="M1704 1790c11,10 28,10 39,0l67 -67c10,-11 10,-28 0,-39 -11,-10 -28,-10 -39,0l-67 67c-10,11 -10,28 0,39z"/>
    <path class="fil2" d="M1379 2269c-25,-6 -33,-28 -79,-28 -45,0 -82,37 -82,82 0,45 37,81 82,81 46,0 54,-21 79,-28 25,-6 54,-11 76,-8l0 -91c-22,4 -51,-1 -76,-8z"/>
    <path class="fil2" d="M3385 2241c-46,0 -54,22 -79,28 -25,7 -53,12 -75,8l0 91c22,-3 50,2 75,8 25,7 33,28 79,28 45,0 82,-36 82,-81 0,-45 -37,-82 -82,-82z"/>
    <path class="fil2" d="M3171 2248c-15,0 -27,12 -27,27l0 95c0,15 12,27 27,27 15,0 27,-12 27,-27l0 -95c0,-15 -12,-27 -27,-27z"/>
    <path class="fil2" d="M1542 2370l0 -95c0,-15 -13,-27 -28,-27 -14,0 -27,12 -27,27l0 95c0,15 13,27 27,27 15,0 28,-12 28,-27z"/>
    <path class="fil2" d="M1623 2966c-22,13 -43,4 -75,36 -32,32 -32,84 0,116 32,32 83,32 115,0 33,-33 23,-54 36,-76 14,-22 30,-46 48,-59l-65 -65c-13,19 -36,35 -59,48z"/>
    <path class="fil2" d="M3062 1679c22,-13 43,-3 76,-36 32,-32 32,-83 0,-115 -32,-32 -84,-32 -116,0 -32,32 -23,54 -36,76 -13,22 -30,45 -48,58l65 65c13,-18 36,-34 59,-48z"/>
    <path class="fil2" d="M2943 1790c10,10 27,10 38,0 10,-11 10,-28 0,-39l-67 -67c-11,-10 -28,-10 -38,0 -11,11 -11,28 0,39l67 67z"/>
    <path class="fil2" d="M1743 2856c-11,-11 -28,-11 -39,0 -10,10 -10,28 0,38l67 67c11,10 28,10 39,0 10,-11 10,-28 0,-38l-67 -67z"/>
    <path class="fil2" d="M2880 2792c1,-1 2,-2 3,-4l0 0c97,-112 160,-255 171,-412 0,-2 0,-4 0,-6l60 0 0 -95 -60 0c0,-1 0,-3 0,-5 -11,-157 -74,-301 -171,-413l0 0c-1,-1 -2,-3 -3,-4l41 -42 -67 -67 -42 42c-1,-1 -2,-2 -4,-4l0 0c-112,-97 -255,-159 -413,-171 -1,0 -3,0 -5,0l0 -59 -95 0 0 59c-2,0 -3,0 -5,0l0 0c-157,12 -301,74 -413,171l0 0c-1,2 -3,3 -4,4l-42 -42 -67 67 42 42c-1,1 -3,3 -4,4l0 0 0 0 0 0c-97,112 -159,256 -171,413l0 -1 0 1c0,0 0,0 0,0 0,2 0,4 0,5l-59 0 0 95 59 0c0,2 0,4 0,6 12,157 74,300 171,412l0 0c1,2 3,3 4,4l-42 42 67 67 42 -41c1,1 3,2 4,3l1 1 -1 -1c112,97 256,160 413,171l0 0c2,0 3,0 5,0l0 60 95 0 0 -60c2,0 4,0 5,0 158,-11 301,-74 413,-171l0 0 1 0 -1 0c2,-1 3,-2 4,-3l42 41 67 -67 -41 -42zm29 -517l-395 0c-2,-7 -5,-14 -8,-21 -2,-7 -5,-13 -9,-19l280 -279c74,88 122,198 132,319zm-519 -518c121,10 232,58 319,132l-279 279c-12,-7 -26,-13 -40,-16l0 -395zm-95 0l0 394c-7,2 -15,5 -22,8 -6,3 -12,6 -18,9l-279 -279c88,-74 198,-122 319,-132zm-386 199l279 279c-7,13 -13,26 -17,40l-394 0c10,-121 58,-231 132,-319zm-132 414l394 0c2,8 5,15 8,22 3,6 6,12 9,18l-279 280c-74,-88 -122,-199 -132,-320zm518 519c-121,-10 -231,-58 -319,-132l279 -280c13,7 26,13 40,17l0 395zm91 -548c-3,9 -9,16 -17,21 -7,5 -16,8 -26,8 -7,0 -13,-1 -19,-3 -8,-4 -16,-10 -21,-18 -5,-7 -8,-16 -8,-26 0,-7 1,-13 4,-19 3,-8 10,-16 17,-21 8,-5 17,-8 27,-8 6,0 12,2 18,4 9,3 16,10 21,17 5,8 8,17 8,27 0,6 -1,13 -4,18zm4 548l0 -395c8,-2 15,-5 22,-8 6,-2 12,-5 18,-9l279 280c-87,74 -198,122 -319,132zm387 -199l-280 -280c7,-12 13,-26 17,-40l395 0c-10,121 -58,232 -132,320z"/>
   </g>
  </g>
 </g>
</svg>
