<?xml version="1.0" encoding="UTF-8"?>
<!DOCTYPE svg PUBLIC "-//W3C//DTD SVG 1.1//EN" "http://www.w3.org/Graphics/SVG/1.1/DTD/svg11.dtd">
<!-- Creator: CorelDRAW X7 -->
<svg xmlns="http://www.w3.org/2000/svg" xml:space="preserve" width="145mm" height="200mm" version="1.1" style="shape-rendering:geometricPrecision; text-rendering:geometricPrecision; image-rendering:optimizeQuality; fill-rule:evenodd; clip-rule:evenodd"
viewBox="0 0 14500 20000"
 xmlns:xlink="http://www.w3.org/1999/xlink">
 <defs>
  <style type="text/css">
   <![CDATA[
    .fil5 {fill:#C5C6C6}
    .fil6 {fill:black}
    .fil0 {fill:url(#id0)}
    .fil4 {fill:url(#id1)}
    .fil1 {fill:url(#id2)}
    .fil3 {fill:url(#id3)}
    .fil2 {fill:url(#id4)}
   ]]>
  </style>
  <linearGradient id="id0" gradientUnits="userSpaceOnUse" x1="7224" y1="18418" x2="7224" y2="20149">
   <stop offset="0" style="stop-opacity:1; stop-color:#0071BC"/>
   <stop offset="0.121569" style="stop-opacity:0.945098; stop-color:#0071BC"/>
   <stop offset="0.211765" style="stop-opacity:0.85098; stop-color:#0071BC"/>
   <stop offset="1" style="stop-opacity:0; stop-color:#0071BC"/>
  </linearGradient>
  <linearGradient id="id1" gradientUnits="userSpaceOnUse" x1="6668" y1="15983.7" x2="6668" y2="18716">
   <stop offset="0" style="stop-opacity:1; stop-color:#F6A91D"/>
   <stop offset="0.188235" style="stop-opacity:1; stop-color:#E8A01B"/>
   <stop offset="0.541176" style="stop-opacity:1; stop-color:#C58717"/>
   <stop offset="1" style="stop-opacity:1; stop-color:#8C6011"/>
  </linearGradient>
  <linearGradient id="id2" gradientUnits="userSpaceOnUse" x1="3373" y1="17000.5" x2="9171" y2="17000.5">
   <stop offset="0" style="stop-opacity:1; stop-color:#FF8015"/>
   <stop offset="0.490196" style="stop-opacity:1; stop-color:#D16911"/>
   <stop offset="0.211765" style="stop-opacity:1; stop-color:#FB7E15"/>
   <stop offset="0.419608" style="stop-opacity:1; stop-color:#EF7814"/>
   <stop offset="0.490196" style="stop-opacity:1; stop-color:#D16911"/>
   <stop offset="0.619608" style="stop-opacity:1; stop-color:#DC6E12"/>
   <stop offset="0.819608" style="stop-opacity:1; stop-color:#C16110"/>
   <stop offset="1" style="stop-opacity:1; stop-color:#A2510D"/>
  </linearGradient>
  <linearGradient id="id3" gradientUnits="userSpaceOnUse" x1="9078.64" y1="16491.2" x2="10130.8" y2="18367.6">
   <stop offset="0" style="stop-opacity:1; stop-color:#F6A91D"/>
   <stop offset="0.0196078" style="stop-opacity:1; stop-color:#F0A51C"/>
   <stop offset="0.121569" style="stop-opacity:1; stop-color:#D19019"/>
   <stop offset="0.231373" style="stop-opacity:1; stop-color:#B87E16"/>
   <stop offset="0.360784" style="stop-opacity:1; stop-color:#A47114"/>
   <stop offset="0.501961" style="stop-opacity:1; stop-color:#966712"/>
   <stop offset="0.678431" style="stop-opacity:1; stop-color:#8E6211"/>
   <stop offset="1" style="stop-opacity:1; stop-color:#8C6011"/>
  </linearGradient>
  <linearGradient id="id4" gradientUnits="userSpaceOnUse" x1="9789" y1="16071.5" x2="10434" y2="16071.5">
   <stop offset="0" style="stop-opacity:1; stop-color:#FF8015"/>
   <stop offset="0.211765" style="stop-opacity:1; stop-color:#FB7E15"/>
   <stop offset="0.419608" style="stop-opacity:1; stop-color:#EF7814"/>
   <stop offset="0.45098" style="stop-opacity:1; stop-color:#D16911"/>
   <stop offset="0.619608" style="stop-opacity:1; stop-color:#DC6E12"/>
   <stop offset="0.819608" style="stop-opacity:1; stop-color:#C16110"/>
   <stop offset="1" style="stop-opacity:1; stop-color:#A2510D"/>
  </linearGradient>
 </defs>
 <g id="Слой_x0020_1">
  <metadata id="CorelCorpID_0Corel-Layer"/>
  <polygon class="fil0" points="233,18512 886,18838 1794,18908 2890,18488 3728,18861 4591,18884 5499,18418 6268,18838 7270,18838 8203,18442 8878,18838 10090,18838 10812,18465 11908,18931 12793,18814 13446,18465 14159,18851 14282,20023 166,20149 "/>
  <path class="fil1" d="M9115 15387c17,79 36,156 56,232 -740,-43 -1781,355 -3114,1193 -1142,718 -2164,1553 -2465,1805 -77,-27 -151,-59 -219,-96 574,-495 3730,-3137 5656,-3137 19,0 77,2 86,3z"/>
  <path class="fil2" d="M10264 16068c79,133 135,277 170,426 -121,-217 -290,-418 -508,-599 -43,-37 -89,-69 -137,-98 31,-46 62,-95 96,-148 151,110 280,250 379,419z"/>
  <path class="fil3" d="M9687 16181c496,414 684,920 557,1506 -211,390 -550,848 -670,1011 -5,6 -8,11 -12,16 -217,9 -437,-16 -635,-73 140,-316 611,-1443 711,-2498 16,12 33,24 49,38zm364 1045c22,-101 -43,-200 -144,-221 -100,-21 -199,43 -221,144l-124 590c-21,101 43,200 144,221 13,3 26,4 39,4 86,0 164,-60 182,-148l124 -590z"/>
  <path class="fil4" d="M4062 18710c1305,-1067 3920,-2925 5212,-2709 -69,1021 -557,2192 -690,2493l-325 -195c-59,-36 -133,-36 -192,0l-335 201c-479,288 -1288,288 -1767,0l-335 -201c-59,-36 -133,-36 -193,0l-334 201c-279,168 -668,237 -1041,210zm4529 -1795c21,-101 -43,-200 -144,-221 -101,-21 -200,44 -221,144l-124 590c-21,102 43,200 144,221 13,3 26,5 39,5 86,0 163,-61 182,-149l124 -590z"/>
  <path class="fil5" d="M4574 10483c33,953 -116,2311 -905,3758 -459,-28 -842,-19 -1154,-11 1443,-2227 1462,-3652 1365,-4261l675 188c8,105 15,214 19,326z"/>
  <path class="fil5" d="M4638 8593l4532 1252c-150,1239 -256,2559 -233,3730 -177,-6 -363,-4 -555,8 -1682,102 -3652,852 -4639,1272 1051,-1679 1242,-3287 1203,-4385 -29,-842 -191,-1501 -308,-1877z"/>
  <path class="fil5" d="M4943 14782c351,69 715,159 1088,270 -797,82 -1444,337 -1817,516l92 -543c193,-77 407,-160 637,-243z"/>
  <path class="fil5" d="M8177 13974l-167 1210c-88,27 -176,56 -265,88 -739,-308 -1454,-550 -2133,-722 804,-261 1715,-497 2565,-576z"/>
  <path class="fil5" d="M10158 6062l1655 5574c-220,97 -620,312 -1041,740 -753,764 -1143,1763 -1343,2656 -201,-1237 -150,-3096 154,-5457 185,-1435 423,-2740 575,-3513z"/>
  <path class="fil5" d="M13068 10921c246,1254 139,2292 -330,3171 -384,719 -969,1230 -1461,1585 -14,-602 -189,-1081 -520,-1430 637,-1044 1320,-2194 1570,-2614 52,-89 23,-203 -66,-256 -44,-26 -95,-32 -142,-20l-226 -760 1175 324z"/>
  <path class="fil5" d="M5900 5701l704 205c-147,471 -377,997 -737,1493 95,-490 162,-1133 33,-1698z"/>
  <path class="fil5" d="M12661 6236c213,854 222,2539 -368,3584 -50,-427 -307,-872 -989,-1208l-904 -3041 1465 431 796 234z"/>
  <path class="fil5" d="M7227 4639l2678 787c-84,398 -292,1421 -494,2704 -77,-9 -158,-17 -244,-25 -1245,-111 -2602,-27 -3497,97 1282,-1266 1515,-2936 1557,-3563z"/>
  <path class="fil5" d="M6460 4413l398 117c-2,52 -7,116 -14,192l-542 -108c49,-57 103,-125 158,-201z"/>
  <path class="fil5" d="M7101 2440l644 190c-17,412 -128,976 -490,1628l-587 -172c219,-395 415,-941 433,-1646z"/>
  <path class="fil5" d="M12087 4278c23,426 -31,812 -155,1123 -267,-466 -729,-841 -1359,-1097 -886,-361 -1993,-420 -2830,-180 476,-1023 409,-1835 303,-2278l3736 1170c164,325 279,800 305,1262z"/>
  <path class="fil6" d="M13125 8307c-73,621 -262,1443 -736,2039l1507 416c99,28 157,131 130,230 -28,100 -131,157 -230,130l-328 -91c500,2902 -948,4282 -2285,5162 -59,39 -136,41 -197,6 -61,-37 -96,-104 -91,-175 47,-621 -68,-1105 -342,-1444 -166,271 -325,528 -468,754 199,141 370,324 500,544 323,548 350,1228 72,1820 -141,299 -381,661 -568,924 98,-32 190,-72 272,-122l335 -201c60,-36 133,-36 192,0l335 201c479,288 1289,288 1768,0l334 -201c60,-36 134,-36 193,0 169,102 673,313 666,402l-9 313c-2,67 -131,37 -192,0l-561 -338 -239 144c-594,357 -1559,357 -2152,0l-239 -144 -238 144c-594,357 -1559,357 -2152,0l-239 -144 -239 144c-296,178 -686,268 -1076,268 -389,0 -779,-90 -1075,-268l-239 -144 -239 144c-593,357 -1559,357 -2152,0l-239 -144 -238 144c-593,357 -1559,357 -2152,0l-239 -144 -50 30 -25 -408c59,-36 112,-35 171,1l335 201c479,288 1288,288 1767,0l335 -201c60,-36 133,-36 192,0l36 21c1067,-957 2942,-2284 4211,-2847 -23,-9 -46,-18 -68,-27 -1705,-253 -3100,616 -3114,625 -62,40 -141,38 -203,-2 -61,-41 -93,-114 -80,-187l117 -689c-313,134 -527,233 -599,267 -78,37 -169,17 -224,-50 -54,-65 -57,-160 -6,-228 142,-194 271,-386 389,-578 -364,-15 -677,-8 -938,-1 -127,3 -248,6 -358,6 -69,0 -132,-38 -165,-99 -32,-62 -28,-136 12,-193 683,-1000 1790,-3219 1465,-4461l-585 -163c-99,-28 -157,-131 -129,-230 27,-99 130,-157 229,-129l1521 423c-89,-648 -242,-1107 -308,-1284l-1095 -303c-99,-27 -157,-130 -130,-229 28,-99 131,-158 229,-130l1779 491c121,-93 236,-189 342,-290 80,-252 463,-1561 149,-2434l-383 -111c-99,-29 -155,-133 -127,-231 29,-99 133,-156 231,-127l1506 437c39,-163 69,-316 92,-453l-910 -182c-71,-14 -127,-69 -144,-140 -17,-71 9,-145 66,-190 13,-10 127,-102 270,-280l-52 -15c-99,-29 -156,-133 -126,-232 29,-99 132,-155 231,-126l170 50c212,-357 429,-1186 429,-1647l-642 -189c-99,-29 -155,-133 -126,-232 29,-98 133,-155 231,-126l1541 454c-26,-253 -82,-434 -117,-527l-414 -129c-98,-31 -153,-136 -122,-234 31,-98 135,-153 234,-122l2514 788 166 -1195c14,-102 108,-174 210,-159 102,14 173,108 159,210l-173 1257 2281 714c99,31 153,136 123,234 -32,100 -135,152 -234,123l-114 -36c289,821 364,1744 -47,2549l1015 299c99,29 155,133 126,231 -29,99 -133,156 -231,127l-41 -12c95,943 108,982 56,1951zm-387 5785c469,-879 576,-1917 330,-3171l-1175 -324 226 760c47,-12 98,-6 142,20 89,53 118,167 66,256 -250,420 -933,1570 -1570,2614 331,349 506,828 520,1430 492,-355 1077,-866 1461,-1585zm-445 -4272c590,-1045 581,-2730 368,-3584l-2261 -665 904 3041c682,336 939,781 989,1208zm-361 -4419c124,-311 178,-697 155,-1123 -26,-462 -141,-937 -305,-1262l-3736 -1170c106,443 173,1255 -303,2278 837,-240 1944,-181 2830,180 630,256 1092,631 1359,1097zm-22 4813c77,-440 -71,-796 -450,-1076l308 1037 142 39zm-97 1422l-1655 -5574c-152,773 -390,2078 -575,3513 -304,2361 -355,4220 -154,5457 200,-893 590,-1892 1343,-2656 421,-428 821,-643 1041,-740zm-2020 -6632l1780 523c-284,-450 -757,-722 -1141,-878 -180,-73 -370,-133 -566,-179l-73 534zm1756 7206c-596,403 -1036,996 -1336,1643 91,45 177,94 256,149 380,-623 774,-1280 1080,-1792zm-1115 4284c-79,-338 -267,-639 -549,-845l-96 148c48,29 94,61 137,98 218,181 387,382 508,599zm-190 1193c127,-586 -61,-1092 -557,-1506 -16,-14 -33,-26 -49,-38 -100,1055 -571,2182 -711,2498 198,57 418,82 635,73l12 -16c120,-163 459,-621 670,-1011zm31 -3367c-64,-45 -133,-86 -207,-123 -116,300 -204,602 -270,894 146,-232 308,-495 477,-771zm-370 -8894l-2678 -787c-42,627 -275,2297 -1557,3563 895,-124 2252,-208 3497,-97 86,8 167,16 244,25 202,-1283 410,-2306 494,-2704zm-474 -528l69 -499c-544,-82 -1100,-62 -1569,58l1500 441zm-77 3600c-12,-1 -25,-2 -37,-3l-146 963 46 13c43,-334 90,-659 137,-973zm-184 1347l-4532 -1252c117,376 279,1035 308,1877 39,1098 -152,2706 -1203,4385 987,-420 2957,-1170 4639,-1272 192,-12 378,-14 555,-8 -23,-1171 83,-2491 233,-3730zm1 5774c-20,-76 -39,-153 -56,-232 -9,-1 -67,-3 -86,-3 -1926,0 -5082,2642 -5656,3137 68,37 142,69 219,96 301,-252 1323,-1087 2465,-1805 1333,-838 2374,-1236 3114,-1193zm103 382c-1292,-216 -3907,1642 -5212,2709 373,27 762,-42 1041,-210l334 -201c60,-36 134,-36 193,0l335 201c479,288 1288,288 1767,0l335 -201c59,-36 133,-36 192,0l325 195c133,-301 621,-1472 690,-2493zm-874 -918c225,-47 442,-72 648,-71 -50,-330 -83,-687 -99,-1064 -126,-5 -257,-5 -392,0l-157 1135zm410 -5725l136 -897c-1093,-80 -2247,-14 -3065,88l2929 809zm-800 5826l167 -1210c-850,79 -1761,315 -2565,576 679,172 1394,414 2133,722 89,-32 177,-61 265,-88zm-265 -12554l-644 -190c-18,705 -214,1251 -433,1646l587 172c362,-652 473,-1216 490,-1628zm-887 1900l-398 -117c-55,76 -109,144 -158,201l542 108c7,-76 12,-140 14,-192zm-254 1376l-704 -205c129,565 62,1208 -33,1698 360,-496 590,-1022 737,-1493zm-573 9146c-373,-111 -737,-201 -1089,-270 -229,83 -443,166 -636,243l-92 543c373,-179 1020,-434 1817,-516zm-2362 -811c789,-1447 938,-2805 905,-3758 -4,-112 -11,-221 -19,-326l-675 -188c97,609 78,2034 -1365,4261 312,-8 695,-17 1154,11z"/>
  <path class="fil6" d="M9907 17005c101,21 166,120 144,221l-124 590c-18,88 -96,148 -182,148 -13,0 -26,-1 -39,-4 -101,-21 -165,-120 -144,-221l124 -590c22,-101 121,-165 221,-144z"/>
  <path class="fil6" d="M8447 16694c101,21 165,120 144,221l-124 590c-19,88 -96,149 -182,149 -13,0 -26,-2 -39,-5 -101,-21 -165,-119 -144,-221l124 -590c21,-100 120,-165 221,-144z"/>
 </g>
</svg>
