<?xml version="1.0" encoding="UTF-8"?>
<!DOCTYPE svg PUBLIC "-//W3C//DTD SVG 1.1//EN" "http://www.w3.org/Graphics/SVG/1.1/DTD/svg11.dtd">
<!-- Creator: CorelDRAW X7 -->
<svg xmlns="http://www.w3.org/2000/svg" xml:space="preserve" width="4488px" height="6024px" version="1.1" style="shape-rendering:geometricPrecision; text-rendering:geometricPrecision; image-rendering:optimizeQuality; fill-rule:evenodd; clip-rule:evenodd"
viewBox="0 0 4488 6023"
 xmlns:xlink="http://www.w3.org/1999/xlink">
 <defs>
  <style type="text/css">
   <![CDATA[
    .fil0 {fill:#008DD2}
    .fil7 {fill:black}
    .fil6 {fill:#C5C6C6}
    .fil1 {fill:#FEFEFE}
    .fil2 {fill:url(#id0)}
    .fil5 {fill:url(#id1)}
    .fil4 {fill:url(#id2)}
    .fil3 {fill:url(#id3)}
   ]]>
  </style>
  <linearGradient id="id0" gradientUnits="userSpaceOnUse" x1="1640.97" y1="3422.49" x2="2535.72" y2="3422.49">
   <stop offset="0" style="stop-opacity:1; stop-color:#FF8015"/>
   <stop offset="0.211765" style="stop-opacity:1; stop-color:#FB7E15"/>
   <stop offset="0.419608" style="stop-opacity:1; stop-color:#EF7814"/>
   <stop offset="0.490196" style="stop-opacity:1; stop-color:#D16911"/>
   <stop offset="0.619608" style="stop-opacity:1; stop-color:#DC6E12"/>
   <stop offset="0.819608" style="stop-opacity:1; stop-color:#C16110"/>
   <stop offset="1" style="stop-opacity:1; stop-color:#A2510D"/>
  </linearGradient>
  <linearGradient id="id1" gradientUnits="userSpaceOnUse" x1="2149.45" y1="3265.58" x2="2149.45" y2="3687.23">
   <stop offset="0" style="stop-opacity:1; stop-color:#F6A91D"/>
   <stop offset="0.188235" style="stop-opacity:1; stop-color:#E8A01B"/>
   <stop offset="0.541176" style="stop-opacity:1; stop-color:#C58717"/>
   <stop offset="1" style="stop-opacity:1; stop-color:#8C6011"/>
  </linearGradient>
  <linearGradient id="id2" gradientUnits="userSpaceOnUse" x1="2521.46" y1="3343.9" x2="2683.84" y2="3633.45">
   <stop offset="0" style="stop-opacity:1; stop-color:#F6A91D"/>
   <stop offset="0.0196078" style="stop-opacity:1; stop-color:#F0A51C"/>
   <stop offset="0.121569" style="stop-opacity:1; stop-color:#D19019"/>
   <stop offset="0.231373" style="stop-opacity:1; stop-color:#B87E16"/>
   <stop offset="0.360784" style="stop-opacity:1; stop-color:#A47114"/>
   <stop offset="0.501961" style="stop-opacity:1; stop-color:#966712"/>
   <stop offset="0.678431" style="stop-opacity:1; stop-color:#8E6211"/>
   <stop offset="1" style="stop-opacity:1; stop-color:#8C6011"/>
  </linearGradient>
  <linearGradient id="id3" gradientUnits="userSpaceOnUse" x1="2631.09" y1="3279.12" x2="2730.62" y2="3279.12">
   <stop offset="0" style="stop-opacity:1; stop-color:#FF8015"/>
   <stop offset="0.211765" style="stop-opacity:1; stop-color:#FB7E15"/>
   <stop offset="0.419608" style="stop-opacity:1; stop-color:#EF7814"/>
   <stop offset="0.45098" style="stop-opacity:1; stop-color:#D16911"/>
   <stop offset="0.619608" style="stop-opacity:1; stop-color:#DC6E12"/>
   <stop offset="0.819608" style="stop-opacity:1; stop-color:#C16110"/>
   <stop offset="1" style="stop-opacity:1; stop-color:#A2510D"/>
  </linearGradient>
 </defs>
 <g id="Слой_x0020_1">
  <metadata id="CorelCorpID_0Corel-Layer"/>
  <path class="fil0" d="M2266 5931l3 0c160,0 325,-76 433,-220l5 -7 2 -7c675,-1082 1104,-1735 1372,-2211 267,-471 380,-789 380,-1155 0,-120 -12,-240 -31,-372 -148,-1063 -1089,-1876 -2164,-1869 -1079,0 -2013,796 -2164,1869 -18,132 -28,252 -28,372 -2,366 111,684 380,1155 266,476 697,1129 1369,2211l5 7 5 7c106,144 271,220 431,220l2 0 0 0z"/>
  <circle class="fil1" cx="2297" cy="2289" r="1603"/>
  <g id="SVGRepo_bgCarrier">
  </g>
  <g id="SVGRepo_tracerCarrier">
  </g>
  <path class="fil2" d="M2527 3173c3,13 6,25 9,36 -114,-6 -275,55 -481,184 -176,111 -334,240 -380,279 -12,-4 -24,-9 -34,-15 89,-76 576,-484 873,-484 3,0 12,0 13,0z"/>
  <path class="fil3" d="M2704 3279c13,20 21,42 27,65 -19,-33 -45,-64 -79,-92 -6,-6 -14,-11 -21,-15 5,-7 10,-15 15,-23 23,17 43,39 58,65z"/>
  <path class="fil4" d="M2615 3296c77,64 106,142 86,232 -32,61 -85,131 -103,156 -1,1 -1,2 -2,3 -33,1 -67,-3 -98,-11 22,-49 94,-223 110,-386 2,2 5,4 7,6zm57 161c3,-15 -7,-31 -23,-34 -15,-3 -30,7 -34,22l-19 91c-3,16 7,31 22,35 2,0 4,0 6,0 14,0 26,-9 28,-23l20 -91z"/>
  <path class="fil5" d="M1747 3686c202,-164 605,-451 805,-418 -11,158 -86,339 -107,385l-50 -30c-9,-6 -21,-6 -30,0l-51 31c-74,44 -199,44 -273,0l-52 -31c-9,-6 -20,-6 -30,0l-51 31c-43,26 -103,36 -161,32zm699 -277c3,-15 -6,-31 -22,-34 -16,-3 -31,7 -34,22l-19 91c-3,16 6,31 22,35 2,0 4,0 6,0 13,0 25,-9 28,-23l19 -91z"/>
  <path class="fil6" d="M1826 2417c5,147 -18,356 -139,580 -71,-5 -130,-3 -178,-2 222,-344 225,-564 210,-658l104 29c2,17 3,33 3,51z"/>
  <path class="fil6" d="M1836 2125l700 193c-24,191 -40,395 -36,576 -28,-1 -56,-1 -86,1 -260,16 -564,132 -716,196 162,-259 192,-507 186,-676 -5,-130 -30,-232 -48,-290z"/>
  <path class="fil6" d="M1883 3080c54,11 111,25 168,42 -123,12 -223,52 -280,79l14 -83c30,-12 63,-25 98,-38z"/>
  <path class="fil6" d="M2382 2955l-25 187c-14,4 -28,9 -41,14 -114,-48 -225,-85 -330,-112 125,-40 265,-76 396,-89z"/>
  <path class="fil6" d="M2688 1734l255 861c-34,15 -95,48 -160,114 -116,118 -177,272 -207,410 -31,-191 -24,-478 23,-842 29,-222 66,-423 89,-543z"/>
  <path class="fil6" d="M3137 2484c38,194 22,354 -51,490 -59,111 -149,189 -225,244 -2,-93 -29,-167 -81,-220 99,-162 204,-339 243,-404 8,-14 3,-31 -10,-39 -7,-4 -15,-5 -22,-3l-35 -118 181 50z"/>
  <path class="fil6" d="M2031 1679l109 31c-23,73 -59,154 -114,231 15,-76 25,-175 5,-262z"/>
  <path class="fil6" d="M3074 1761c33,132 35,392 -56,553 -8,-66 -48,-134 -153,-186l-140 -469 226 66 123 36z"/>
  <path class="fil6" d="M2236 1515l413 121c-13,62 -45,220 -76,418 -12,-2 -25,-3 -38,-4 -192,-17 -401,-4 -540,15 198,-196 234,-453 241,-550z"/>
  <path class="fil6" d="M2117 1480l62 18c-1,8 -1,18 -2,30l-84 -17c8,-9 16,-19 24,-31z"/>
  <path class="fil6" d="M2216 1176l100 29c-3,63 -20,150 -76,251l-91 -26c34,-61 64,-146 67,-254z"/>
  <path class="fil6" d="M2986 1459c3,66 -5,125 -24,173 -41,-71 -113,-129 -210,-169 -137,-56 -307,-65 -437,-28 74,-157 63,-283 47,-351l577 180c25,51 43,124 47,195z"/>
  <path class="fil7" d="M3146 2081c-11,96 -41,223 -114,315l233 64c15,4 24,20 20,35 -4,16 -20,24 -36,20l-50 -14c77,448 -146,661 -353,797 -9,6 -21,6 -30,1 -10,-6 -15,-16 -14,-27 7,-96 -11,-171 -53,-223 -26,42 -50,81 -72,116 30,22 57,50 77,84 50,85 54,190 11,281 -22,46 -59,102 -88,143 4,-1 7,-3 11,-4 -1,2 -2,4 -3,6 -1,2 -2,4 -3,6 -9,16 -14,35 -14,54 -84,20 -183,9 -251,-32l-37 -22 -37 22c-45,28 -106,42 -166,42 -60,0 -120,-14 -166,-42l-37 -22 -36 22c-92,55 -241,55 -333,0l-23 -14c4,-13 6,-26 6,-39l0 0 0 -24 1 0c165,-148 454,-352 650,-439 -4,-2 -7,-3 -11,-4 -263,-39 -478,95 -480,96 -10,6 -22,6 -32,0 -9,-7 -14,-18 -12,-29l18 -106c-48,20 -81,36 -92,41 -12,5 -26,2 -35,-8 -8,-10 -9,-25 -1,-35 22,-30 42,-60 60,-89 -56,-3 -104,-2 -145,0 -19,0 -38,0 -55,0 -10,0 -20,-5 -25,-15 -5,-9 -5,-21 2,-30 105,-154 276,-496 226,-688l-91 -25c-15,-5 -24,-20 -19,-36 4,-15 20,-24 35,-20l235 66c-14,-100 -38,-171 -48,-198l-169 -47c-15,-4 -24,-20 -20,-36 4,-15 20,-24 35,-20l275 76c19,-14 36,-29 53,-45 12,-39 71,-241 23,-375l-59 -17c-16,-5 -24,-21 -20,-36 4,-15 20,-24 36,-20l232 68c6,-25 11,-49 14,-70l-140 -28c-11,-2 -20,-11 -22,-22 -3,-11 1,-22 10,-29 2,-2 19,-16 41,-43l-8 -3c-15,-4 -24,-20 -19,-35 4,-16 20,-24 36,-20l26 8c33,-55 66,-183 66,-254l-99 -29c-15,-5 -24,-21 -19,-36 4,-15 20,-24 35,-20l238 70c-4,-39 -13,-67 -18,-81l-64 -20c-15,-5 -24,-21 -19,-36 5,-15 21,-24 36,-19l388 122 26 -185c2,-15 17,-27 32,-24 16,2 27,16 25,32l-27 194 352 110c15,5 24,21 19,36 -5,16 -21,24 -36,19l-18 -5c45,127 57,269 -7,393l157 46c15,5 24,21 19,36 -4,15 -20,24 -35,20l-7 -2c15,145 17,151 9,301zm-60 893c73,-136 89,-296 51,-490l-181 -50 35 118c7,-2 15,-1 22,3 13,8 18,25 10,39 -39,65 -144,242 -243,404 52,53 79,127 81,220 76,-55 166,-133 225,-244zm-68 -660c91,-161 89,-421 56,-553l-349 -102 140 469c105,52 145,120 153,186zm-56 -682c19,-48 27,-107 24,-173 -4,-71 -22,-144 -47,-195l-577 -180c16,68 27,194 -47,351 130,-37 300,-28 437,28 97,40 169,98 210,169zm-4 743c12,-68 -11,-123 -69,-166l47 160 22 6zm-15 220l-255 -861c-23,120 -60,321 -89,543 -47,364 -54,651 -23,842 30,-138 91,-292 207,-410 65,-66 126,-99 160,-114zm-311 -1024l274 81c-43,-70 -116,-112 -176,-136 -27,-11 -57,-20 -87,-27l-11 82zm271 1112c-92,62 -160,154 -206,254 14,7 27,14 39,23 59,-96 119,-198 167,-277zm-172 661c-13,-52 -42,-98 -85,-130l-15 23c7,4 15,9 21,15 34,28 60,59 79,92zm-30 184c20,-90 -9,-168 -86,-232 -2,-2 -5,-4 -7,-6 -16,163 -88,337 -110,386 31,8 65,12 98,11l2 -3c18,-25 71,-95 103,-156zm5 -519c-10,-7 -20,-13 -32,-19 -18,46 -31,93 -42,138 23,-36 48,-77 74,-119zm-57 -1373l-413 -121c-7,97 -43,354 -241,550 139,-19 348,-32 540,-15 13,1 26,2 38,4 31,-198 63,-356 76,-418zm-73 -81l10 -77c-83,-13 -169,-10 -242,9l232 68zm-12 555c-2,0 -4,0 -6,0l-22 149 7 2c6,-52 14,-102 21,-151zm-28 208l-700 -193c18,58 43,160 48,290 6,169 -24,417 -186,676 152,-64 456,-180 716,-196 30,-2 58,-2 86,-1 -4,-181 12,-385 36,-576zm0 891c-3,-11 -6,-23 -9,-36 -1,0 -10,0 -13,0 -297,0 -784,408 -873,484 10,6 22,11 34,15 46,-39 204,-168 380,-279 206,-129 367,-190 481,-184zm16 59c-200,-33 -603,254 -805,418 58,4 118,-6 161,-32l51 -31c10,-6 21,-6 30,0l52 31c74,44 199,44 273,0l51 -31c9,-6 21,-6 30,0l50 30c21,-46 96,-227 107,-385zm-135 -141c34,-8 68,-12 100,-11 -8,-51 -13,-106 -16,-165 -19,0 -39,0 -60,0l-24 176zm63 -884l21 -138c-169,-13 -347,-2 -473,13l452 125zm-123 899l25 -187c-131,13 -271,49 -396,89 105,27 216,64 330,112 13,-5 27,-10 41,-14zm-41 -1937l-100 -29c-3,108 -33,193 -67,254l91 26c56,-101 73,-188 76,-251zm-137 293l-62 -18c-8,12 -16,22 -24,31l84 17c1,-12 1,-22 2,-30zm-39 212l-109 -31c20,87 10,186 -5,262 55,-77 91,-158 114,-231zm-89 1412c-57,-17 -114,-31 -168,-42 -35,13 -68,26 -98,38l-14 83c57,-27 157,-67 280,-79zm-364 -125c121,-224 144,-433 139,-580 0,-18 -1,-34 -3,-51l-104 -29c15,94 12,314 -210,658 48,-1 107,-3 178,2z"/>
  <path class="fil7" d="M2649 3423c16,3 26,19 23,34l-20 91c-2,14 -14,23 -28,23 -2,0 -4,0 -6,0 -15,-4 -25,-19 -22,-35l19 -91c4,-15 19,-25 34,-22z"/>
  <path class="fil7" d="M2424 3375c16,3 25,19 22,34l-19 91c-3,14 -15,23 -28,23 -2,0 -4,0 -6,0 -16,-4 -25,-19 -22,-35l19 -91c3,-15 18,-25 34,-22z"/>
 </g>
</svg>
